<svg width="27" height="41" viewBox="0 0 27 41" fill="none" xmlns="http://www.w3.org/2000/svg">
<path d="M21 37L26.7735 27L15.2265 27L21 37ZM21 13L20 13L20 28L21 28L22 28L22 13L21 13Z" fill="black" fill-opacity="0.5"/>
<path d="M7.37305 4.73633H10.6543L18.0371 20H14.7852L13.5645 17.4316H4.64844L3.4668 20H0.205078L7.37305 4.73633ZM12.3438 14.8828L9.04297 7.94922L5.83008 14.8828H12.3438Z" fill="black"/>
<path d="M7.35156 28.3281L8.52344 26.8984H1.1875V24.7891H13.1328L6.29688 33.375L5.07812 34.8906H12.75V37H0.585938L7.35156 28.3281Z" fill="black" fill-opacity="0.5"/>
</svg>
