<svg width="26" height="18" viewBox="0 0 26 18" fill="none" xmlns="http://www.w3.org/2000/svg">
<path d="M3.92225 1C2.85963 1 1.99821 2.71923 1.99821 4.84V7.045L1.30143 7.91437C0.899522 8.41571 0.899522 9.58429 1.30143 10.0856L1.99821 10.9544V13.16C1.99821 15.2808 2.85963 17 3.92225 17" stroke="black" stroke-width="2" stroke-linecap="round"/>
<path d="M22.0778 1C23.1404 1 24.0018 2.71923 24.0018 4.84V7.045L24.6986 7.91437C25.1005 8.41571 25.1005 9.58429 24.6986 10.0856L24.0018 10.9544V13.16C24.0018 15.2808 23.1404 17 22.0778 17" stroke="black" stroke-width="2" stroke-linecap="round"/>
<path d="M9.34558 3.37939H10.9345L15.0655 14.6204H16.6544" stroke="black" stroke-width="2" stroke-linecap="round"/>
<path d="M16.3499 3.37939H14.8934L11.1066 14.6204H9.65013" stroke="black" stroke-width="2" stroke-linecap="round"/>
</svg>
