<svg width="27" height="41" viewBox="0 0 27 41" fill="none" xmlns="http://www.w3.org/2000/svg">
<path d="M21 37L26.7735 27L15.2265 27L21 37ZM21 13L20 13L20 28L21 28L22 28L22 13L21 13Z" fill="black" fill-opacity="0.5"/>
<path d="M9.18945 9.16016L10.6543 7.37305H1.48438V4.73633H16.416L7.87109 15.4688L6.34766 17.3633H15.9375V20H0.732422L9.18945 9.16016Z" fill="black"/>
<path d="M5.89844 24.7891H8.52344L14.4297 37H11.8281L10.8516 34.9453H3.71875L2.77344 37H0.164062L5.89844 24.7891ZM9.875 32.9062L7.23438 27.3594L4.66406 32.9062H9.875Z" fill="black" fill-opacity="0.5"/>
</svg>
