<svg width="238" height="48" viewBox="0 0 238 48" fill="none" xmlns="http://www.w3.org/2000/svg">
<rect width="238" height="48" fill="white"/>
<path d="M20 40C18.9 40 17.95 39.6167 17.15 38.85C16.3833 38.05 16 37.1 16 36V12C16 10.9 16.3833 9.96667 17.15 9.2C17.95 8.4 18.9 8 20 8H52C53.1 8 54.0333 8.4 54.8 9.2C55.6 9.96667 56 10.9 56 12V36C56 37.1 55.6 38.05 54.8 38.85C54.0333 39.6167 53.1 40 52 40H20ZM36 26L52 16V12L36 22L20 12V16L36 26Z" fill="#5D5D5D"/>
<path d="M80.432 33.528C80.6 33.704 80.68 33.896 80.672 34.104C80.672 34.32 80.568 34.52 80.36 34.704C79.968 35.072 79.568 35.064 79.16 34.68L75.032 30.312C74.856 30.128 74.768 29.932 74.768 29.724C74.768 29.508 74.864 29.312 75.056 29.136C75.456 28.76 75.864 28.768 76.28 29.16L80.432 33.528ZM72.296 33C70.464 33 69.108 32.564 68.228 31.692C67.356 30.812 66.92 29.456 66.92 27.624V22.08C66.92 20.232 67.36 18.876 68.24 18.012C69.12 17.14 70.472 16.712 72.296 16.728H75.176C77.016 16.728 78.372 17.164 79.244 18.036C80.116 18.908 80.552 20.264 80.552 22.104V27.624C80.552 29.456 80.116 30.812 79.244 31.692C78.372 32.564 77.016 33 75.176 33H72.296ZM72.296 30.984H75.176C76.032 30.984 76.704 30.884 77.192 30.684C77.68 30.476 78.024 30.128 78.224 29.64C78.432 29.152 78.536 28.48 78.536 27.624V22.104C78.536 21.256 78.432 20.588 78.224 20.1C78.024 19.612 77.68 19.264 77.192 19.056C76.704 18.848 76.032 18.744 75.176 18.744H72.296C71.448 18.736 70.78 18.832 70.292 19.032C69.804 19.232 69.456 19.576 69.248 20.064C69.04 20.552 68.936 21.224 68.936 22.08V27.624C68.936 28.48 69.036 29.152 69.236 29.64C69.444 30.128 69.792 30.476 70.28 30.684C70.768 30.884 71.44 30.984 72.296 30.984ZM94.9856 20.832C95.6576 20.832 95.9936 21.168 95.9936 21.84V31.992C95.9936 32.664 95.6576 33 94.9856 33C94.3136 33 93.9776 32.664 93.9776 31.992V31.596C93.1296 32.532 91.8816 33 90.2336 33H89.5616C87.9696 33 86.7856 32.616 86.0096 31.848C85.2416 31.072 84.8576 29.888 84.8576 28.296V21.84C84.8576 21.168 85.1936 20.832 85.8656 20.832C86.5376 20.832 86.8736 21.168 86.8736 21.84V28.296C86.8736 29.336 87.0616 30.044 87.4376 30.42C87.8216 30.796 88.5296 30.984 89.5616 30.984H90.2336C91.1936 30.984 92.0296 30.872 92.7416 30.648C93.4616 30.424 93.8736 30.08 93.9776 29.616V21.84C93.9776 21.168 94.3136 20.832 94.9856 20.832ZM101.66 18.864C100.9 18.864 100.52 18.48 100.52 17.712V17.004C100.52 16.252 100.9 15.876 101.66 15.876H102.356C103.084 15.876 103.448 16.252 103.448 17.004V17.712C103.448 18.48 103.084 18.864 102.356 18.864H101.66ZM101.996 33C101.324 33 100.988 32.664 100.988 31.992V21.84C100.988 21.168 101.324 20.832 101.996 20.832C102.668 20.832 103.004 21.168 103.004 21.84V31.992C103.004 32.664 102.668 33 101.996 33ZM112.124 33C110.532 33 109.348 32.616 108.572 31.848C107.804 31.072 107.42 29.888 107.42 28.296V25.512C107.42 23.912 107.8 22.728 108.56 21.96C109.328 21.192 110.516 20.816 112.124 20.832H114.092C115.284 20.832 116.22 21.032 116.9 21.432C117.588 21.832 118.028 22.448 118.22 23.28C118.292 23.616 118.232 23.876 118.04 24.06C117.856 24.244 117.588 24.336 117.236 24.336C116.924 24.336 116.696 24.256 116.552 24.096C116.408 23.936 116.276 23.712 116.156 23.424C116.036 23.208 115.816 23.06 115.496 22.98C115.176 22.892 114.708 22.848 114.092 22.848H112.124C111.092 22.832 110.384 23.012 110 23.388C109.624 23.756 109.436 24.464 109.436 25.512V28.296C109.436 29.336 109.624 30.044 110 30.42C110.384 30.796 111.092 30.984 112.124 30.984H114.092C114.708 30.984 115.176 30.944 115.496 30.864C115.816 30.776 116.036 30.624 116.156 30.408C116.276 30.104 116.408 29.876 116.552 29.724C116.704 29.572 116.94 29.496 117.26 29.496C117.596 29.496 117.856 29.588 118.04 29.772C118.232 29.956 118.292 30.216 118.22 30.552C118.028 31.376 117.588 31.992 116.9 32.4C116.22 32.8 115.284 33 114.092 33H112.124ZM123.418 33C122.746 33 122.41 32.664 122.41 31.992V17.112C122.41 16.44 122.746 16.104 123.418 16.104C124.09 16.104 124.426 16.44 124.426 17.112V26.124L130.138 21.216C130.65 20.776 131.122 20.808 131.554 21.312C131.994 21.824 131.962 22.296 131.458 22.728L127.078 26.508L131.266 31.272C131.714 31.792 131.69 32.264 131.194 32.688C130.682 33.128 130.202 33.096 129.754 32.592L125.542 27.84L124.426 28.8V31.992C124.426 32.664 124.09 33 123.418 33ZM143.152 33C142.48 33 142.144 32.664 142.144 31.992V17.736C142.144 17.064 142.48 16.728 143.152 16.728C143.592 16.728 143.96 16.944 144.256 17.376L149.92 25.896L149.488 25.968L155.2 17.376C155.472 16.944 155.88 16.728 156.424 16.728C156.968 16.728 157.24 17.064 157.24 17.736V31.992C157.24 32.664 156.904 33 156.232 33C155.56 33 155.224 32.664 155.224 31.992V19.752L155.848 19.968L150.808 27.384C150.512 27.816 150.104 28.032 149.584 28.032C149.224 28.032 148.896 27.816 148.6 27.384L143.56 19.968L144.16 20.136V31.992C144.16 32.664 143.824 33 143.152 33ZM165.974 33C164.63 33 163.63 32.672 162.974 32.016C162.318 31.36 161.99 30.36 161.99 29.016C161.99 27.672 162.314 26.672 162.962 26.016C163.618 25.36 164.622 25.032 165.974 25.032H171.05C171.002 24.192 170.782 23.62 170.39 23.316C169.998 23.004 169.326 22.848 168.374 22.848H166.982C166.182 22.848 165.586 22.904 165.194 23.016C164.802 23.12 164.526 23.312 164.366 23.592C164.222 23.928 164.074 24.16 163.922 24.288C163.77 24.416 163.542 24.48 163.238 24.48C162.902 24.48 162.638 24.388 162.446 24.204C162.254 24.012 162.198 23.76 162.278 23.448C162.518 22.544 163.018 21.884 163.778 21.468C164.546 21.044 165.614 20.832 166.982 20.832H168.374C169.974 20.832 171.158 21.216 171.926 21.984C172.694 22.752 173.078 23.936 173.078 25.536V31.992C173.078 32.664 172.742 33 172.07 33C171.398 33 171.062 32.664 171.062 31.992V31.452C170.206 32.484 168.958 33 167.318 33H165.974ZM165.974 30.984H167.318C167.91 30.984 168.466 30.932 168.986 30.828C169.506 30.716 169.95 30.516 170.318 30.228C170.694 29.94 170.942 29.528 171.062 28.992V27.048H165.974C165.182 27.048 164.654 27.18 164.39 27.444C164.134 27.708 164.006 28.232 164.006 29.016C164.006 29.808 164.134 30.336 164.39 30.6C164.654 30.856 165.182 30.984 165.974 30.984ZM178.512 18.864C177.752 18.864 177.372 18.48 177.372 17.712V17.004C177.372 16.252 177.752 15.876 178.512 15.876H179.208C179.936 15.876 180.3 16.252 180.3 17.004V17.712C180.3 18.48 179.936 18.864 179.208 18.864H178.512ZM178.848 33C178.176 33 177.84 32.664 177.84 31.992V21.84C177.84 21.168 178.176 20.832 178.848 20.832C179.52 20.832 179.856 21.168 179.856 21.84V31.992C179.856 32.664 179.52 33 178.848 33ZM188.472 33C187.248 33 186.336 32.7 185.736 32.1C185.144 31.492 184.848 30.576 184.848 29.352V17.112C184.848 16.44 185.184 16.104 185.856 16.104C186.528 16.104 186.864 16.44 186.864 17.112V29.352C186.864 30 186.968 30.436 187.176 30.66C187.392 30.876 187.824 30.984 188.472 30.984C189.16 30.984 189.504 31.32 189.504 31.992C189.528 32.664 189.184 33 188.472 33ZM193.356 33C192.684 33 192.348 32.664 192.348 31.992V21.84C192.348 21.168 192.684 20.832 193.356 20.832C194.028 20.832 194.364 21.168 194.364 21.84V22.236C195.212 21.3 196.46 20.832 198.108 20.832H198.78C200.38 20.832 201.564 21.216 202.332 21.984C203.1 22.752 203.484 23.936 203.484 25.536V31.992C203.484 32.664 203.148 33 202.476 33C201.804 33 201.468 32.664 201.468 31.992V25.536C201.468 24.488 201.276 23.78 200.892 23.412C200.516 23.036 199.812 22.848 198.78 22.848H198.108C197.148 22.848 196.312 22.96 195.6 23.184C194.888 23.4 194.476 23.744 194.364 24.216V31.992C194.364 32.664 194.028 33 193.356 33ZM211.118 37.8C210.15 37.8 209.386 37.604 208.826 37.212C208.274 36.82 207.918 36.224 207.758 35.424C207.702 35.088 207.762 34.824 207.938 34.632C208.114 34.44 208.382 34.344 208.742 34.344C209.046 34.344 209.266 34.424 209.402 34.584C209.546 34.752 209.67 35 209.774 35.328C209.87 35.504 210.018 35.624 210.218 35.688C210.426 35.752 210.726 35.784 211.118 35.784H215.582C216.182 35.784 216.57 35.688 216.746 35.496C216.93 35.312 217.022 34.928 217.022 34.344V31.548C216.59 32.02 216.054 32.38 215.414 32.628C214.782 32.876 214.07 33 213.278 33H212.366C210.774 33 209.59 32.616 208.814 31.848C208.046 31.08 207.662 29.904 207.662 28.32V25.536C207.662 23.928 208.042 22.744 208.802 21.984C209.57 21.216 210.758 20.832 212.366 20.832H214.334C214.902 20.832 215.41 20.916 215.858 21.084C216.314 21.252 216.702 21.508 217.022 21.852V21.84C217.022 21.168 217.358 20.832 218.03 20.832C218.702 20.832 219.038 21.168 219.038 21.84V34.344C219.038 35.52 218.754 36.388 218.186 36.948C217.626 37.516 216.758 37.8 215.582 37.8H211.118ZM212.366 30.984H213.278C214.334 30.984 215.222 30.852 215.942 30.588C216.662 30.324 217.022 29.904 217.022 29.328V24.528C217.022 23.88 216.786 23.44 216.314 23.208C215.85 22.968 215.19 22.848 214.334 22.848H212.366C211.334 22.848 210.626 23.032 210.242 23.4C209.866 23.768 209.678 24.48 209.678 25.536V28.32C209.678 29.336 209.866 30.036 210.242 30.42C210.618 30.796 211.326 30.984 212.366 30.984Z" fill="#5D5D5D"/>
</svg>
