<svg width="206" height="32" viewBox="0 0 206 32" fill="none" xmlns="http://www.w3.org/2000/svg">
<path d="M4 32C2.9 32 1.95 31.6167 1.15 30.85C0.383333 30.05 0 29.1 0 28V4C0 2.9 0.383333 1.96667 1.15 1.2C1.95 0.4 2.9 0 4 0H36C37.1 0 38.0333 0.4 38.8 1.2C39.6 1.96667 40 2.9 40 4V28C40 29.1 39.6 30.05 38.8 30.85C38.0333 31.6167 37.1 32 36 32H4ZM20 18L36 8V4L20 14L4 4V8L20 18Z" fill="black"/>
<path d="M64.432 25.528C64.6 25.704 64.68 25.896 64.672 26.104C64.672 26.32 64.568 26.52 64.36 26.704C63.968 27.072 63.568 27.064 63.16 26.68L59.032 22.312C58.856 22.128 58.768 21.932 58.768 21.724C58.768 21.508 58.864 21.312 59.056 21.136C59.456 20.76 59.864 20.768 60.28 21.16L64.432 25.528ZM56.296 25C54.464 25 53.108 24.564 52.228 23.692C51.356 22.812 50.92 21.456 50.92 19.624V14.08C50.92 12.232 51.36 10.876 52.24 10.012C53.12 9.14 54.472 8.712 56.296 8.728H59.176C61.016 8.728 62.372 9.164 63.244 10.036C64.116 10.908 64.552 12.264 64.552 14.104V19.624C64.552 21.456 64.116 22.812 63.244 23.692C62.372 24.564 61.016 25 59.176 25H56.296ZM56.296 22.984H59.176C60.032 22.984 60.704 22.884 61.192 22.684C61.68 22.476 62.024 22.128 62.224 21.64C62.432 21.152 62.536 20.48 62.536 19.624V14.104C62.536 13.256 62.432 12.588 62.224 12.1C62.024 11.612 61.68 11.264 61.192 11.056C60.704 10.848 60.032 10.744 59.176 10.744H56.296C55.448 10.736 54.78 10.832 54.292 11.032C53.804 11.232 53.456 11.576 53.248 12.064C53.04 12.552 52.936 13.224 52.936 14.08V19.624C52.936 20.48 53.036 21.152 53.236 21.64C53.444 22.128 53.792 22.476 54.28 22.684C54.768 22.884 55.44 22.984 56.296 22.984ZM78.9856 12.832C79.6576 12.832 79.9936 13.168 79.9936 13.84V23.992C79.9936 24.664 79.6576 25 78.9856 25C78.3136 25 77.9776 24.664 77.9776 23.992V23.596C77.1296 24.532 75.8816 25 74.2336 25H73.5616C71.9696 25 70.7856 24.616 70.0096 23.848C69.2416 23.072 68.8576 21.888 68.8576 20.296V13.84C68.8576 13.168 69.1936 12.832 69.8656 12.832C70.5376 12.832 70.8736 13.168 70.8736 13.84V20.296C70.8736 21.336 71.0616 22.044 71.4376 22.42C71.8216 22.796 72.5296 22.984 73.5616 22.984H74.2336C75.1936 22.984 76.0296 22.872 76.7416 22.648C77.4616 22.424 77.8736 22.08 77.9776 21.616V13.84C77.9776 13.168 78.3136 12.832 78.9856 12.832ZM85.6602 10.864C84.9002 10.864 84.5202 10.48 84.5202 9.712V9.004C84.5202 8.252 84.9002 7.876 85.6602 7.876H86.3562C87.0842 7.876 87.4482 8.252 87.4482 9.004V9.712C87.4482 10.48 87.0842 10.864 86.3562 10.864H85.6602ZM85.9962 25C85.3242 25 84.9882 24.664 84.9882 23.992V13.84C84.9882 13.168 85.3242 12.832 85.9962 12.832C86.6682 12.832 87.0042 13.168 87.0042 13.84V23.992C87.0042 24.664 86.6682 25 85.9962 25ZM96.124 25C94.532 25 93.348 24.616 92.572 23.848C91.804 23.072 91.42 21.888 91.42 20.296V17.512C91.42 15.912 91.8 14.728 92.56 13.96C93.328 13.192 94.516 12.816 96.124 12.832H98.092C99.284 12.832 100.22 13.032 100.9 13.432C101.588 13.832 102.028 14.448 102.22 15.28C102.292 15.616 102.232 15.876 102.04 16.06C101.856 16.244 101.588 16.336 101.236 16.336C100.924 16.336 100.696 16.256 100.552 16.096C100.408 15.936 100.276 15.712 100.156 15.424C100.036 15.208 99.816 15.06 99.496 14.98C99.176 14.892 98.708 14.848 98.092 14.848H96.124C95.092 14.832 94.384 15.012 94 15.388C93.624 15.756 93.436 16.464 93.436 17.512V20.296C93.436 21.336 93.624 22.044 94 22.42C94.384 22.796 95.092 22.984 96.124 22.984H98.092C98.708 22.984 99.176 22.944 99.496 22.864C99.816 22.776 100.036 22.624 100.156 22.408C100.276 22.104 100.408 21.876 100.552 21.724C100.704 21.572 100.94 21.496 101.26 21.496C101.596 21.496 101.856 21.588 102.04 21.772C102.232 21.956 102.292 22.216 102.22 22.552C102.028 23.376 101.588 23.992 100.9 24.4C100.22 24.8 99.284 25 98.092 25H96.124ZM107.418 25C106.746 25 106.41 24.664 106.41 23.992V9.112C106.41 8.44 106.746 8.104 107.418 8.104C108.09 8.104 108.426 8.44 108.426 9.112V18.124L114.138 13.216C114.65 12.776 115.122 12.808 115.554 13.312C115.994 13.824 115.962 14.296 115.458 14.728L111.078 18.508L115.266 23.272C115.714 23.792 115.69 24.264 115.194 24.688C114.682 25.128 114.202 25.096 113.754 24.592L109.542 19.84L108.426 20.8V23.992C108.426 24.664 108.09 25 107.418 25ZM127.152 25C126.48 25 126.144 24.664 126.144 23.992V9.736C126.144 9.064 126.48 8.728 127.152 8.728C127.592 8.728 127.96 8.944 128.256 9.376L133.92 17.896L133.488 17.968L139.2 9.376C139.472 8.944 139.88 8.728 140.424 8.728C140.968 8.728 141.24 9.064 141.24 9.736V23.992C141.24 24.664 140.904 25 140.232 25C139.56 25 139.224 24.664 139.224 23.992V11.752L139.848 11.968L134.808 19.384C134.512 19.816 134.104 20.032 133.584 20.032C133.224 20.032 132.896 19.816 132.6 19.384L127.56 11.968L128.16 12.136V23.992C128.16 24.664 127.824 25 127.152 25ZM149.974 25C148.63 25 147.63 24.672 146.974 24.016C146.318 23.36 145.99 22.36 145.99 21.016C145.99 19.672 146.314 18.672 146.962 18.016C147.618 17.36 148.622 17.032 149.974 17.032H155.05C155.002 16.192 154.782 15.62 154.39 15.316C153.998 15.004 153.326 14.848 152.374 14.848H150.982C150.182 14.848 149.586 14.904 149.194 15.016C148.802 15.12 148.526 15.312 148.366 15.592C148.222 15.928 148.074 16.16 147.922 16.288C147.77 16.416 147.542 16.48 147.238 16.48C146.902 16.48 146.638 16.388 146.446 16.204C146.254 16.012 146.198 15.76 146.278 15.448C146.518 14.544 147.018 13.884 147.778 13.468C148.546 13.044 149.614 12.832 150.982 12.832H152.374C153.974 12.832 155.158 13.216 155.926 13.984C156.694 14.752 157.078 15.936 157.078 17.536V23.992C157.078 24.664 156.742 25 156.07 25C155.398 25 155.062 24.664 155.062 23.992V23.452C154.206 24.484 152.958 25 151.318 25H149.974ZM149.974 22.984H151.318C151.91 22.984 152.466 22.932 152.986 22.828C153.506 22.716 153.95 22.516 154.318 22.228C154.694 21.94 154.942 21.528 155.062 20.992V19.048H149.974C149.182 19.048 148.654 19.18 148.39 19.444C148.134 19.708 148.006 20.232 148.006 21.016C148.006 21.808 148.134 22.336 148.39 22.6C148.654 22.856 149.182 22.984 149.974 22.984ZM162.512 10.864C161.752 10.864 161.372 10.48 161.372 9.712V9.004C161.372 8.252 161.752 7.876 162.512 7.876H163.208C163.936 7.876 164.3 8.252 164.3 9.004V9.712C164.3 10.48 163.936 10.864 163.208 10.864H162.512ZM162.848 25C162.176 25 161.84 24.664 161.84 23.992V13.84C161.84 13.168 162.176 12.832 162.848 12.832C163.52 12.832 163.856 13.168 163.856 13.84V23.992C163.856 24.664 163.52 25 162.848 25ZM172.472 25C171.248 25 170.336 24.7 169.736 24.1C169.144 23.492 168.848 22.576 168.848 21.352V9.112C168.848 8.44 169.184 8.104 169.856 8.104C170.528 8.104 170.864 8.44 170.864 9.112V21.352C170.864 22 170.968 22.436 171.176 22.66C171.392 22.876 171.824 22.984 172.472 22.984C173.16 22.984 173.504 23.32 173.504 23.992C173.528 24.664 173.184 25 172.472 25ZM177.356 25C176.684 25 176.348 24.664 176.348 23.992V13.84C176.348 13.168 176.684 12.832 177.356 12.832C178.028 12.832 178.364 13.168 178.364 13.84V14.236C179.212 13.3 180.46 12.832 182.108 12.832H182.78C184.38 12.832 185.564 13.216 186.332 13.984C187.1 14.752 187.484 15.936 187.484 17.536V23.992C187.484 24.664 187.148 25 186.476 25C185.804 25 185.468 24.664 185.468 23.992V17.536C185.468 16.488 185.276 15.78 184.892 15.412C184.516 15.036 183.812 14.848 182.78 14.848H182.108C181.148 14.848 180.312 14.96 179.6 15.184C178.888 15.4 178.476 15.744 178.364 16.216V23.992C178.364 24.664 178.028 25 177.356 25ZM195.118 29.8C194.15 29.8 193.386 29.604 192.826 29.212C192.274 28.82 191.918 28.224 191.758 27.424C191.702 27.088 191.762 26.824 191.938 26.632C192.114 26.44 192.382 26.344 192.742 26.344C193.046 26.344 193.266 26.424 193.402 26.584C193.546 26.752 193.67 27 193.774 27.328C193.87 27.504 194.018 27.624 194.218 27.688C194.426 27.752 194.726 27.784 195.118 27.784H199.582C200.182 27.784 200.57 27.688 200.746 27.496C200.93 27.312 201.022 26.928 201.022 26.344V23.548C200.59 24.02 200.054 24.38 199.414 24.628C198.782 24.876 198.07 25 197.278 25H196.366C194.774 25 193.59 24.616 192.814 23.848C192.046 23.08 191.662 21.904 191.662 20.32V17.536C191.662 15.928 192.042 14.744 192.802 13.984C193.57 13.216 194.758 12.832 196.366 12.832H198.334C198.902 12.832 199.41 12.916 199.858 13.084C200.314 13.252 200.702 13.508 201.022 13.852V13.84C201.022 13.168 201.358 12.832 202.03 12.832C202.702 12.832 203.038 13.168 203.038 13.84V26.344C203.038 27.52 202.754 28.388 202.186 28.948C201.626 29.516 200.758 29.8 199.582 29.8H195.118ZM196.366 22.984H197.278C198.334 22.984 199.222 22.852 199.942 22.588C200.662 22.324 201.022 21.904 201.022 21.328V16.528C201.022 15.88 200.786 15.44 200.314 15.208C199.85 14.968 199.19 14.848 198.334 14.848H196.366C195.334 14.848 194.626 15.032 194.242 15.4C193.866 15.768 193.678 16.48 193.678 17.536V20.32C193.678 21.336 193.866 22.036 194.242 22.42C194.618 22.796 195.326 22.984 196.366 22.984Z" fill="black"/>
</svg>
